# xmcd
#
# Track frame offsets: 
#        150
#        14000
#        27023
#        40360
#        54568
#        67556
#        80709
#        97066
#        110991
#        124116
#        138531
#        152663
#        164238
#        177938
#        192428
#        205378
#        219353
#        231840
#        246083
#        259533
#        270070
#        283207
#        296653
#        312127
#        326364
#        338928
#
# Disc length: 4658 seconds
#
# Revision: 0
# Processed by: cddbd v1.5.2PL0 Copyright (c) Steve Scherf et al.
# Submitted via: ExactAudioCopyFreeDBPlugin 1.0
#
DISCID=8812301a
DTITLE=America! - Vol. 5 - Blues - Hell Blues On my Trail (Disc2)
DYEAR=2014
DGENRE=Blues
TTITLE0=Black, brown and white - Big Bill Broonzy
TTITLE1=Stone pony blues - Charley Patton
TTITLE2=Stack O'lee blues- Mississippi John Hurt
TTITLE3=Banana in your fruit basket - Bo Carter
TTITLE4=Black snake moan - Blind Lemon Jefferson
TTITLE5=Wabash rag - Blind Blake
TTITLE6=Canned heat blues - Tommy Johnson
TTITLE7=Steady rollin' man - Sonny Boy Williamson II
TTITLE8=Bottleneck blues - Sylvester Weaver
TTITLE9=Mournful blues - Jimmy Yancey
TTITLE10=A handful of riffs - Lonnie Jonhson
TTITLE11=Kill it kid - Blind Willie McTell
TTITLE12=Depot blues - Son House
TTITLE13=Cypress grove blues - Nehemiah Skip James
TTITLE14=Crawlin' king snake - Big Joe Williams
TTITLE15=61 Highway - Mississippi Fred McDowell
TTITLE16=If you take me back - Kansas Joe McCoy
TTITLE17=Homesick and lonesome blues - Blind Boy Fuller
TTITLE18=Guitar swing - Casey Bill Weldon
TTITLE19=Stop breakin' down blues - Robert Johnson
TTITLE20=Penitentiary blues - Lightnin' Hopkins
TTITLE21=Hoodoo hoodoo - Sonny Boy Williamson I
TTITLE22=Country blues - Muddy Waters
TTITLE23=Boogie chillen - John Lee Hooker
TTITLE24=Dust my broom - Elmore James
TTITLE25=Mama talk to your daughter - J.B. Lenoir
EXTD=
EXTT0=
EXTT1=
EXTT2=
EXTT3=
EXTT4=
EXTT5=
EXTT6=
EXTT7=
EXTT8=
EXTT9=
EXTT10=
EXTT11=
EXTT12=
EXTT13=
EXTT14=
EXTT15=
EXTT16=
EXTT17=
EXTT18=
EXTT19=
EXTT20=
EXTT21=
EXTT22=
EXTT23=
EXTT24=
EXTT25=
PLAYORDER=
